PathFileType	4	(X/Y/Z)	HSS_walk5.trc
DataRate	CameraRate	NumFrames	NumMarkers	Units	OrigDataRate	OrigDataStartFrame	OrigNumFrames
120.0	120.0	4	44	mm	120.0	271	1080
Frame#	Time		R.Shoulder		Offset		L.Shoulder		R.Elbow		R.Wrist.Radial		R.Wrist		R.Hand		L.Elbow		L.Wrist.Radial		L.Wrist		L.Hand		R.Hip		V.Sacral		L.PSIS		L.Hip		R.Thigh.Upper		R.Thigh.Front		R.Thigh.Rear		X.Shell.Lower.Thigh.Right		R.Knee.Lateral		R.Shank.Upper		R.Shank.Front		R.Shank.Rear		X.Shell.Lower.Shank.Right		R.Ankle.Lateral		R.Heel		R.Toe		L.Thigh.Upper		L.Thigh.Front		L.Thigh.Rear		X.Shell.Lower.Thigh.Left		L.Knee.Lateral		L.Shank.Upper		L.Shank.Front		L.Shank.Rear		X.Shell.Lower.Shank.Left		L.Ankle.Lateral		L.Heel		L.Toe		R.Troc		L.Troc		R.PSIS		L.ASIS		R.ASIS
			X1	Y1	Z1	X2	Y2	Z2	X3	Y3	Z3	X4	Y4	Z4	X5	Y5	Z5	X6	Y6	Z6	X7	Y7	Z7	X8	Y8	Z8	X9	Y9	Z9	X10	Y10	Z10	X11	Y11	Z11	X12	Y12	Z12	X13	Y13	Z13	X14	Y14	Z14	X15	Y15	Z15	X16	Y16	Z16	X17	Y17	Z17	X18	Y18	Z18	X19	Y19	Z19	X20	Y20	Z20	X21	Y21	Z21	X22	Y22	Z22	X23	Y23	Z23	X24	Y24	Z24	X25	Y25	Z25	X26	Y26	Z26	X27	Y27	Z27	X28	Y28	Z28	X29	Y29	Z29	X30	Y30	Z30	X31	Y31	Z31	X32	Y32	Z32	X33	Y33	Z33	X34	Y34	Z34	X35	Y35	Z35	X36	Y36	Z36	X37	Y37	Z37	X38	Y38	Z38	X39	Y39	Z39	X40	Y40	Z40	X41	Y41	Z41	X42	Y42	Z42	X43	Y43	Z43	X44	Y44	Z44

271	2.25000	-1786.55469	1479.57092	-25.62504	-1888.86646	1377.77051	-311.91025	-1777.98462	1488.15430	-399.84421	-1790.35107	1112.87000	19.37348	-1637.08435	905.93695	10.51757	-1672.79773	896.32715	74.78320	-1620.31445	826.31360	66.85621	-1782.10303	1123.76318	-447.15167	-1660.68372	916.74609	-486.92499	-1633.37317	914.70679	-419.78586	-1612.83875	844.81268	-470.71082	-1729.43176	1040.02307	-57.22834	-1845.17078	1020.74084	-208.97800	-1843.31958	1027.25635	-249.31622	-1721.51648	1036.93018	-352.68820	-1682.61951	695.35126	-18.62075	-1648.79993	659.24982	-35.14858	-1704.89563	656.65228	-9.48289	-1677.13916	624.55591	-27.82571	-1736.57397	516.11096	-41.83906	-1754.87854	367.88452	7.18447	-1731.69214	322.50790	-17.95144	-1789.67395	333.52609	-3.05400	-1770.14148	291.97440	-13.11654	-1799.50793	70.52084	-57.71170	-1845.38257	32.50821	-105.02108	-1647.05420	32.71227	-57.67479	-1674.01709	692.56732	-370.85297	-1655.54773	643.19995	-346.99655	-1704.39209	657.05713	-384.39896	-1679.91370	621.77594	-370.88312	-1750.57153	506.70230	-351.39828	-1787.06104	305.84491	-390.05893	-1760.28125	282.75656	-372.59024	-1818.19336	267.80597	-375.68497	-1795.72046	236.70718	-376.79041	-1784.10913	71.47254	-328.17029	-1838.80139	32.96780	-281.51596	-1639.79419	32.33500	-319.12329	-1713.97571	881.25879	-19.41575	-1716.60986	893.43201	-390.29379	-1847.40735	1025.95215	-164.04756	-1657.30774	1000.98206	-311.70892	-1669.17810	1003.10034	-88.57208
272	2.25833	-1786.11206	1479.53601	-25.52174	-1888.31042	1377.88672	-311.92709	-1777.34106	1488.18286	-399.77371	-1789.71277	1112.87122	19.42135	-1636.52197	905.93207	10.66814	-1672.13538	896.33655	74.80766	-1619.69153	826.31683	66.95183	-1781.52014	1123.74866	-447.12350	-1660.07471	916.73114	-486.85062	-1633.26001	914.57617	-419.72437	-1612.14539	844.81409	-470.61203	-1729.04041	1040.04468	-57.11546	-1844.77039	1020.67883	-208.88577	-1842.97046	1027.17896	-249.22763	-1721.13684	1036.82690	-352.60699	-1682.17822	695.33868	-18.58854	-1648.43665	659.25513	-35.11141	-1704.42297	656.56604	-9.64384	-1676.57239	624.56293	-27.91054	-1736.29053	516.08142	-41.79644	-1754.61108	367.88022	7.13055	-1731.42786	322.37799	-18.03993	-1789.43164	333.55179	-3.03281	-1769.90332	291.92581	-13.14201	-1799.49146	70.53899	-57.79679	-1845.34033	32.53936	-105.02760	-1647.00256	32.65047	-57.68010	-1673.64197	692.53503	-370.74835	-1655.18884	643.15479	-346.77026	-1703.98071	657.07562	-384.31387	-1679.60596	621.79584	-370.80322	-1750.28821	506.70969	-351.31125	-1786.89124	305.86481	-390.00574	-1760.14246	282.75052	-372.53854	-1818.01099	267.83594	-375.63492	-1795.58838	236.72748	-376.73325	-1784.07214	71.49921	-328.13120	-1838.80554	33.00267	-281.49442	-1639.73596	32.30110	-319.11111	-1713.65112	881.23560	-19.38354	-1716.23462	893.42236	-390.24121	-1846.99231	1025.87720	-163.95612	-1656.93884	1000.96991	-311.59421	-1668.74817	1003.06555	-88.51295
273	2.26667	-1785.29700	1479.46643	-25.52292	-1887.72522	1377.90601	-311.90149	-1776.66528	1488.19177	-399.76028	-1789.25745	1112.83276	19.50163	-1635.88928	905.96918	10.80793	-1671.44592	896.32947	74.75596	-1618.97192	826.32629	67.04087	-1780.95642	1123.73987	-447.11429	-1659.51013	916.67505	-486.81644	-1632.38672	914.60565	-419.63464	-1611.61035	844.78821	-470.54507	-1728.65112	1040.08337	-57.05933	-1844.30627	1020.64691	-208.79283	-1842.64478	1027.11206	-249.12758	-1720.86536	1036.79407	-352.58328	-1681.71228	695.28302	-18.58673	-1647.94214	659.23834	-35.12339	-1704.11169	656.46851	-9.80564	-1676.17761	624.47192	-27.92876	-1735.97253	516.04028	-41.76348	-1754.31201	367.88406	7.10905	-1731.16187	322.28659	-18.11999	-1789.13672	333.58847	-3.03651	-1769.73682	291.90887	-13.16257	-1799.46436	70.55835	-57.79511	-1845.29346	32.58152	-105.06178	-1646.97705	32.62805	-57.70787	-1673.25293	692.51843	-370.65552	-1654.89368	643.12781	-346.67023	-1703.66028	657.10773	-384.19516	-1679.21790	621.80341	-370.75363	-1749.94946	506.69250	-351.18924	-1786.74353	305.90805	-389.99521	-1759.97131	282.75879	-372.56628	-1817.80566	267.83957	-375.60437	-1795.44019	236.72939	-376.72089	-1784.00684	71.47758	-328.14099	-1838.78418	33.02678	-281.48111	-1639.73108	32.29868	-319.10553	-1713.19604	881.19250	-19.34617	-1715.71716	893.43958	-390.29538	-1846.69885	1025.78345	-163.90295	-1656.48145	1000.96368	-311.54044	-1668.00366	1003.13910	-88.29472
274	2.27500	-1784.75354	1479.45203	-25.50692	-1887.15112	1377.99646	-311.82355	-1776.16797	1488.20435	-399.74905	-1788.63831	1112.79053	19.64635	-1635.29626	905.97040	10.86267	-1670.86084	896.31165	74.78908	-1618.35632	826.28674	67.05061	-1780.46619	1123.70349	-447.14978	-1658.87561	916.63232	-486.78036	-1631.87390	914.50000	-419.59921	-1610.92578	844.79291	-470.47507	-1728.23657	1040.02661	-56.96412	-1843.96533	1020.60150	-208.67725	-1842.16272	1026.99438	-249.01535	-1720.60168	1036.83276	-352.55145	-1681.31262	695.28223	-18.50385	-1647.52588	659.22327	-35.19290	-1703.50024	656.41803	-9.80668	-1675.75146	624.41589	-27.90664	-1735.63550	515.92084	-41.67733	-1753.98486	367.87213	7.12293	-1730.92798	322.25528	-18.09026	-1788.92456	333.58820	-3.04640	-1769.63513	291.91592	-13.05885	-1799.42151	70.56973	-57.81278	-1845.25183	32.60202	-105.09220	-1646.91724	32.56097	-57.70760	-1672.88550	692.50775	-370.50854	-1654.54553	643.04907	-346.51736	-1703.36365	657.10626	-384.13919	-1678.82837	621.79480	-370.70013	-1749.66699	506.68964	-351.10544	-1786.56372	305.91583	-389.90811	-1759.82104	282.76685	-372.51999	-1817.63049	267.89523	-375.58417	-1795.30542	236.75307	-376.67938	-1783.97534	71.48706	-328.12561	-1838.77783	33.06477	-281.48849	-1639.73169	32.28060	-319.08023	-1712.70020	881.13617	-19.33799	-1715.35168	893.34253	-390.10669	-1846.46802	1025.71936	-163.83698	-1656.08899	1000.96478	-311.45474	-1667.70532	1003.16748	-88.20035
